# xmcd
#
# Track frame offsets: 
#        150
#        7433
#        18453
#        30930
#        44352
#        55993
#        65215
#        74728
#        87142
#        97050
#        106642
#        114177
#        134544
#        143827
#        151302
#        161935
#        180940
#        192704
#        202849
#        222273
#        237489
#
# Disc length: 3476 seconds
#
# Revision: 1
# Processed by: cddbd v1.5.2PL0 Copyright (c) Steve Scherf et al.
# Submitted via: ExactAudioCopy v0.99pb5
#
DISCID=330d9215
DTITLE=Maestro - Brazilian Trip - CD2
DYEAR=2009
DGENRE=Jazz
TTITLE0=Doris Monteiro E Miltinho - Desse Jeito Nao Tem Jeito
TTITLE1=Joao Donato - A Ra
TTITLE2=Golden Boys - Se Voce Quiser Mas Sem Bronquear
TTITLE3=Bebeto - Corda Bamba
TTITLE4=Eliana Pittman - Bezouro Manganga
TTITLE5=Milton Nascimento and Lo Borges - Cravo E Canela
TTITLE6=Marcos Valle - Batucada Surgiu
TTITLE7=Milton Banana Trio - Cidade Vazia
TTITLE8=Milton Nascimento - Para Lennon E McCartney
TTITLE9=Noriel Vilela - 16 Toneladas (Sixteen Tons)
TTITLE10=Som 3 - O Telefone Tocou Novamente
TTITLE11=Roberto Ribeiro - Ao Povo Em Forma De Arte
TTITLE12=Bossa Tres - Onde Anda O Meu Amor
TTITLE13=Milton Banana Trio - Bananadas
TTITLE14=Duke Pearson - Upa Neguinho
TTITLE15=Quarteto Novo - Misturada
TTITLE16=Os Tres Morais - Freio Aerodinamico
TTITLE17=Wilson Das Neves E Seu Conjunto - Brazzaville
TTITLE18=Joyce - Aldea De Ogum
TTITLE19=Bossa Tres - Nao Me Diga Adeus
TTITLE20=Quarteto Novo - Vim De Sant'Ana
EXTD=YEAR: 2009
EXTT0=
EXTT1=
EXTT2=
EXTT3=
EXTT4=
EXTT5=
EXTT6=
EXTT7=
EXTT8=
EXTT9=
EXTT10=
EXTT11=
EXTT12=
EXTT13=
EXTT14=
EXTT15=
EXTT16=
EXTT17=
EXTT18=
EXTT19=
EXTT20=
PLAYORDER=
